<svg width="250.75625px" height="88.39999999999999px" xmlns="http://www.w3.org/2000/svg" viewBox="124.621875 30.800000000000004 250.75625 88.39999999999999" style="background: rgba(0, 0, 0, 0);" preserveAspectRatio="xMidYMid"><defs><filter id="editing-extrusion" x="-100%" y="-100%" width="300%" height="300%"><feFlood result="color1" flood-color="#444"></feFlood><feConvolveMatrix order="8,8" divisor="1" kernelMatrix="1 0 0 0 0 0 0 0 0 1 0 0 0 0 0 0 0 0 1 0 0 0 0 0 0 0 0 1 0 0 0 0 0 0 0 0 1 0 0 0 0 0 0 0 0 1 0 0 0 0 0 0 0 0 1 0 0 0 0 0 0 0 0 1" in="SourceAlpha" result="extrude"></feConvolveMatrix><feComposite in="color1" in2="extrude" result="comp-extrude" operator="in"></feComposite><feOffset dx="4" dy="4" in="comp-extrude" result="offset-extrude"></feOffset><feMerge><feMergeNode in="offset-extrude"></feMergeNode><feMergeNode in="SourceGraphic"></feMergeNode></feMerge></filter></defs><g filter="url(#editing-extrusion)"><g transform="translate(165.65500578284264, 90.07000255584717)"><path d="M18.71-6.62L18.71-6.62L18.71-6.62Q19.52-5.59 19.52-3.59L19.52-3.59L19.52-3.59Q19.52-1.59 18.00-0.37L18.00-0.37L18.00-0.37Q16.47 0.86 13.80 0.86L13.80 0.86L13.80 0.86Q12.26 0.86 9.85 0.52L9.85 0.52L9.85 0.52Q5.12-0.22 3.76-0.22L3.76-0.22L3.76-0.22Q2.41-0.22 1.85-0.15L1.85-0.15L1.85-0.15Q1.29-0.09 0.39 0L0.39 0L5.59-28.38L15.01-28.38L10.71-4.73L10.71-4.73Q11.27-4.64 11.78-4.64L11.78-4.64L12.86-4.64L12.86-4.64Q16.47-4.64 18.71-6.62ZM22.62-10.49L22.62-10.49L22.62-10.49Q22.62-18.62 26.83-23.74L26.83-23.74L26.83-23.74Q31.30-29.28 39.09-29.28L39.09-29.28L39.09-29.28Q44.72-29.28 47.56-26.55L47.56-26.55L47.56-26.55Q50.40-23.82 50.40-18.06L50.40-18.06L50.40-18.06Q50.40-9.29 45.92-4.17L45.92-4.17L45.92-4.17Q41.50 0.86 34.06 0.86L34.06 0.86L34.06 0.86Q28.25 0.86 25.43-2.04L25.43-2.04L25.43-2.04Q22.62-4.95 22.62-10.49ZM33.93-19.39L33.93-19.39L33.93-19.39Q31.99-11.65 31.99-5.55L31.99-5.55L31.99-5.55Q31.99-4.08 32.49-3.14L32.49-3.14L32.49-3.14Q32.98-2.19 34.29-2.19L34.29-2.19L34.29-2.19Q35.60-2.19 36.42-2.82L36.42-2.82L36.42-2.82Q37.24-3.44 37.88-4.86L37.88-4.86L37.88-4.86Q38.92-7.18 39.88-12.10L39.88-12.10L39.88-12.10Q40.85-17.03 40.94-19.07L40.94-19.07L40.94-19.07Q41.02-21.11 41.02-22.66L41.02-22.66L41.02-22.66Q41.02-24.21 40.55-25.20L40.55-25.20L40.55-25.20Q40.08-26.19 38.81-26.19L38.81-26.19L38.81-26.19Q37.54-26.19 36.68-25.41L36.68-25.41L36.68-25.41Q35.09-23.95 33.93-19.39ZM53.15-10.49L53.15-10.49L53.15-10.49Q53.15-18.62 57.36-23.74L57.36-23.74L57.36-23.74Q61.83-29.28 69.62-29.28L69.62-29.28L69.62-29.28Q75.25-29.28 78.09-26.55L78.09-26.55L78.09-26.55Q80.93-23.82 80.93-18.06L80.93-18.06L80.93-18.06Q80.93-9.29 76.45-4.17L76.45-4.17L76.45-4.17Q72.03 0.86 64.59 0.86L64.59 0.86L64.59 0.86Q58.78 0.86 55.96-2.04L55.96-2.04L55.96-2.04Q53.15-4.95 53.15-10.49ZM64.46-19.39L64.46-19.39L64.46-19.39Q62.52-11.65 62.52-5.55L62.52-5.55L62.52-5.55Q62.52-4.08 63.02-3.14L63.02-3.14L63.02-3.14Q63.51-2.19 64.82-2.19L64.82-2.19L64.82-2.19Q66.13-2.19 66.95-2.82L66.95-2.82L66.95-2.82Q67.77-3.44 68.41-4.86L68.41-4.86L68.41-4.86Q69.45-7.18 70.41-12.10L70.41-12.10L70.41-12.10Q71.38-17.03 71.47-19.07L71.47-19.07L71.47-19.07Q71.55-21.11 71.55-22.66L71.55-22.66L71.55-22.66Q71.55-24.21 71.08-25.20L71.08-25.20L71.08-25.20Q70.61-26.19 69.34-26.19L69.34-26.19L69.34-26.19Q68.07-26.19 67.21-25.41L67.21-25.41L67.21-25.41Q65.62-23.95 64.46-19.39ZM99.85-28.68L99.85-28.68L99.85-28.68Q110.38-28.68 110.38-21.24L110.38-21.24L110.38-21.24Q110.38-17.16 107.76-14.71L107.76-14.71L107.76-14.71Q105.18-12.26 100.66-12.26L100.66-12.26L100.66-12.26Q98.56-12.26 96.92-13.46L96.92-13.46L96.92-13.46Q96.15-13.98 95.63-14.66L95.63-14.66L95.63-14.66Q98.77-14.66 100.43-16.58L100.43-16.58L100.43-16.58Q102.08-18.49 102.08-22.23L102.08-22.23L102.08-22.23Q102.08-25.97 98.38-25.97L98.38-25.97L97.35-25.97L97.35-25.97Q97.09-25.97 96.88-25.93L96.88-25.93L91.93 0L82.60 0L87.89-28.17L87.89-28.17Q92.49-28.60 95.16-28.64L95.16-28.64L95.16-28.64Q97.83-28.68 99.85-28.68ZM119.41 0L110.21 0L115.46-28.25L115.46-28.25Q119.71-28.72 125.93-28.72L125.93-28.72L125.93-28.72Q132.14-28.72 135.02-26.92L135.02-26.92L135.02-26.92Q137.90-25.11 137.90-21.48L137.90-21.48L137.90-21.48Q137.90-17.85 136.03-15.57L136.03-15.57L136.03-15.57Q134.16-13.29 130.94-12.56L130.94-12.56L130.94-12.56Q131.67-8.99 133.34-6.11L133.34-6.11L133.34-6.11Q134.89-3.40 136.70-2.54L136.70-2.54L136.70-2.54Q136.05-0.73 134.74 0.06L134.74 0.06L134.74 0.06Q133.43 0.86 131.56 0.86L131.56 0.86L131.56 0.86Q129.69 0.86 128.23-0.24L128.23-0.24L128.23-0.24Q126.76-1.33 125.60-3.35L125.60-3.35L125.60-3.35Q123.15-7.74 122.89-14.66L122.89-14.66L123.20-14.66L123.20-14.66Q126.38-14.75 127.97-16.40L127.97-16.40L127.97-16.40Q129.56-18.06 129.56-21.54L129.56-21.54L129.56-21.54Q129.56-25.89 125.90-26.06L125.90-26.06L124.96-26.06L124.96-26.06Q124.57-26.06 124.36-26.02L124.36-26.02L119.41 0ZM140.52-10.49L140.52-10.49L140.52-10.49Q140.52-18.62 144.74-23.74L144.74-23.74L144.74-23.74Q149.21-29.28 156.99-29.28L156.99-29.28L156.99-29.28Q162.63-29.28 165.46-26.55L165.46-26.55L165.46-26.55Q168.30-23.82 168.30-18.06L168.30-18.06L168.30-18.06Q168.30-9.29 163.83-4.17L163.83-4.17L163.83-4.17Q159.40 0.86 151.96 0.86L151.96 0.86L151.96 0.86Q146.16 0.86 143.34-2.04L143.34-2.04L143.34-2.04Q140.52-4.95 140.52-10.49ZM151.83-19.39L151.83-19.39L151.83-19.39Q149.90-11.65 149.90-5.55L149.90-5.55L149.90-5.55Q149.90-4.08 150.39-3.14L150.39-3.14L150.39-3.14Q150.89-2.19 152.20-2.19L152.20-2.19L152.20-2.19Q153.51-2.19 154.33-2.82L154.33-2.82L154.33-2.82Q155.14-3.44 155.79-4.86L155.79-4.86L155.79-4.86Q156.82-7.18 157.79-12.10L157.79-12.10L157.79-12.10Q158.76-17.03 158.84-19.07L158.84-19.07L158.84-19.07Q158.93-21.11 158.93-22.66L158.93-22.66L158.93-22.66Q158.93-24.21 158.46-25.20L158.46-25.20L158.46-25.20Q157.98-26.19 156.71-26.19L156.71-26.19L156.71-26.19Q155.45-26.19 154.59-25.41L154.59-25.41L154.59-25.41Q152.99-23.95 151.83-19.39Z" fill="#ccc"></path></g></g><style>text {
  font-size: 64px;
  font-family: Arial Black;
  dominant-baseline: central;
  text-anchor: middle;
}</style></svg>